HIERARCHY
ROOT hip
{
	OFFSET 0.000000 0.000000 0.000000
	CHANNELS 6 Xposition Yposition Zposition Xrotation Zrotation Yrotation 
	JOINT abdomen
	{
		OFFSET 0.000000 3.422050 0.000000
		CHANNELS 3 Xrotation Zrotation Yrotation 
		JOINT chest
		{
			OFFSET 0.000000 8.486693 -0.684411
			CHANNELS 3 Xrotation Zrotation Yrotation 
			JOINT neck
			{
				OFFSET 0.000000 10.266162 -0.273764
				CHANNELS 3 Xrotation Zrotation Yrotation 
				JOINT head
				{
					OFFSET 0.000000 3.148285 0.000000
					CHANNELS 3 Xrotation Zrotation Yrotation 
					End Site
					{
						OFFSET 0.000000 3.148289 0.000000
					}
				}
			}
			JOINT lCollar
			{
				OFFSET 3.422053 6.707223 -0.821293
				CHANNELS 3 Yrotation Zrotation Xrotation 
				JOINT lShldr
				{
					OFFSET 3.285171 0.000000 0.000000
					CHANNELS 3 Zrotation Yrotation Xrotation 
					JOINT lForeArm
					{
						OFFSET 10.129278 0.000000 0.000000
						CHANNELS 3 Yrotation Zrotation Xrotation 
						JOINT lHand
						{
							OFFSET 8.486692 0.000000 0.000000
							CHANNELS 3 Zrotation Yrotation Xrotation 
							End Site
							{
								OFFSET 4.106464 0.000000 0.000000
							}
						}
					}
				}
			}
			JOINT rCollar
			{
				OFFSET -3.558935 6.707223 -0.821293
				CHANNELS 3 Yrotation Zrotation Xrotation 
				JOINT rShldr
				{
					OFFSET -3.148289 0.000000 0.000000
					CHANNELS 3 Zrotation Yrotation Xrotation 
					JOINT rForeArm
					{
						OFFSET -10.266159 0.000000 0.000000
						CHANNELS 3 Yrotation Zrotation Xrotation 
						JOINT rHand
						{
							OFFSET -8.349810 0.000000 0.000000
							CHANNELS 3 Zrotation Yrotation Xrotation 
							End Site
							{
								OFFSET -4.106464 0.000000 0.000000
							}
						}
					}
				}
			}
		}
	}
	JOINT lThigh
	{
		OFFSET 5.338403 -1.642589 1.368821
		CHANNELS 3 Xrotation Zrotation Yrotation 
		JOINT lShin
		{
			OFFSET -2.053232 -20.121670 0.000000
			CHANNELS 3 Xrotation Zrotation Yrotation 
			JOINT lFoot
			{
				OFFSET 0.000000 -19.300380 -1.231939
				CHANNELS 3 Xrotation Yrotation Zrotation 
				End Site
				{
					OFFSET 0.000000 -2.463878 4.653993
				}
			}
		}
	}
	JOINT rThigh
	{
		OFFSET -5.338403 -1.642589 1.368821
		CHANNELS 3 Xrotation Zrotation Yrotation 
		JOINT rShin
		{
			OFFSET 2.053232 -20.121670 0.000000
			CHANNELS 3 Xrotation Zrotation Yrotation 
			JOINT rFoot
			{
				OFFSET 0.000000 -19.300380 -1.231939
				CHANNELS 3 Xrotation Yrotation Zrotation 
				End Site
				{
					OFFSET 0.000000 -2.463878 4.653993
				}
			}
		}
	}
}
MOTION
Frames: 6
Frame Time: 0.033264
0.000000 43.528500 0.000000 0.000000 0.000000 0.000000 0.000000 0.000000 0.000000 0.000000 0.000000 0.000000 0.000000 0.000000 0.000000 0.000000 0.000000 0.000000 0.000000 0.000000 0.000000 0.000000 0.000000 0.000000 0.000000 0.000000 0.000000 0.000000 0.000000 0.000000 0.000000 0.000000 0.000000 0.000000 0.000000 0.000000 0.000000 0.000000 0.000000 0.000000 0.000000 0.000000 0.000000 0.000000 0.000000 0.000000 0.000000 0.000000 0.000000 0.000000 0.000000 0.000000 0.000000 0.000000 0.000000 0.000000 0.000000 0.000000 0.000000 0.000000 
0.000000 40.593857 27.763546 109.999611 -0.000001 0.000001 37.621960 -0.938362 -0.764839 26.898743 0.228672 -0.738180 -0.400421 0.000000 0.000000 -0.354959 0.000000 0.000000 -5.660846 43.216972 -3.268888 47.218487 -11.956218 -60.040581 -3.300423 12.830575 -1.341636 -3.691666 -0.044181 -0.556655 5.706230 -43.550846 -3.147505 -47.238686 11.915225 -60.070919 3.292549 -12.826230 -1.317992 3.767350 -0.280149 -0.791251 -110.113045 6.151549 -3.602053 -0.212163 -3.960702 0.317006 41.409473 6.769920 0.428719 -110.028793 -6.234544 3.584186 -0.376144 4.068509 -0.393040 41.459930 -6.784400 -0.532711 
0.000000 40.593857 27.703136 109.999611 -0.000001 0.000001 37.955208 -0.938378 -0.764875 26.122501 0.228690 -0.738059 -0.792309 0.000000 0.000000 -0.703189 0.000000 0.000000 -5.941782 43.043865 -2.911905 47.218487 -11.956218 -60.040581 -3.300423 12.830575 -1.341637 -3.872940 -0.042559 -0.525675 5.984815 -43.359863 -2.795295 -47.238686 11.915225 -60.070919 3.292549 -12.826231 -1.317992 3.946836 -0.262891 -0.748967 -110.113045 6.151549 -3.602053 -0.212163 -3.960702 0.317006 41.409473 6.769920 0.428719 -110.028793 -6.234544 3.584186 -0.376144 4.068509 -0.393040 41.459930 -6.784400 -0.532711 
0.000000 40.593857 27.642729 109.999626 -0.000001 0.000001 38.288502 -0.938394 -0.764912 25.345692 0.228710 -0.737937 -1.184596 0.000000 0.000000 -1.051698 0.000000 0.000000 -6.220483 42.869469 -2.557049 47.218491 -11.956217 -60.040581 -3.300423 12.830576 -1.341636 -4.054219 -0.040839 -0.494698 6.260944 -43.167614 -2.445427 -47.238689 11.915223 -60.070919 3.292549 -12.826230 -1.317992 4.126341 -0.245764 -0.706628 -110.113052 6.151550 -3.602054 -0.212163 -3.960702 0.317006 41.409473 6.769920 0.428719 -110.028793 -6.234544 3.584186 -0.376144 4.068509 -0.393040 41.459930 -6.784400 -0.532711 
0.000000 40.593857 27.582319 109.999611 -0.000001 0.000001 38.621841 -0.938409 -0.764948 24.568377 0.228732 -0.737816 -1.577273 0.000000 0.000000 -1.400479 0.000000 0.000000 -6.496953 42.693802 -2.204315 47.218487 -11.956218 -60.040581 -3.300423 12.830576 -1.341637 -4.235505 -0.039021 -0.463726 6.534626 -42.974117 -2.097889 -47.238686 11.915225 -60.070919 3.292549 -12.826231 -1.317992 4.305866 -0.228770 -0.664233 -110.113045 6.151550 -3.602053 -0.212163 -3.960702 0.317006 41.409473 6.769920 0.428719 -110.028793 -6.234544 3.584186 -0.376144 4.068509 -0.393040 41.459938 -6.784400 -0.532711 
0.000000 40.593857 27.521912 109.999611 -0.000001 0.000001 38.955204 -0.938424 -0.764985 23.790621 0.228755 -0.737695 -1.970332 0.000000 0.000000 -1.749526 0.000000 0.000000 -6.771192 42.516876 -1.853701 47.218487 -11.956218 -60.040581 -3.300422 12.830574 -1.341636 -4.416794 -0.037105 -0.432759 6.805871 -42.779411 -1.752673 -47.238678 11.915225 -60.070915 3.292549 -12.826229 -1.317992 4.485407 -0.211908 -0.621785 -110.113037 6.151549 -3.602052 -0.212163 -3.960701 0.317006 41.409473 6.769920 0.428719 -110.028786 -6.234543 3.584185 -0.376144 4.068509 -0.393040 41.459930 -6.784400 -0.532711 
